DBRep_DrawableShape

CASCADE Topology V1, (c) Matra-Datavision
Locations 0
Curve2ds 64
1 6.2831853071795862 -0 0 1 
1 0 -0 0 1 
1 6.2831853071795862 -0 0 1 
1 0 -0 0 1 
1 0 0 1 0 
2 0 0 1 0 -0 1 500
1 0 0 1 0 
2 0 0 1 0 -0 1 500
1 0 100 1 0 
2 0 0 1 0 -0 1 500
1 0 100 1 0 
8 -5.9999999999999997e-07 50.0000006
1 1.5707963267948966 0 0 1 
8 -5.9999999999999997e-07 50.0000006
1 1.5707963267948966 0 0 1 
8 -5.9999999999999997e-07 50.0000006
1 1.5707963267948966 0 0 1 
2 0 400 1 0 -0 1 100
1 0 0 1 0 
1 -100 100 0 1 
1 0 0 0 -1 
1 -100 100 0 1 
1 -100 100 1 0 
1 0 0 0 1 
1 -100 100 1 0 
1 100 100 0 1 
1 0 0 0 -1 
2 0 400 1 0 -0 1 100
1 0 0 1 0 
1 3.1415926535897931 0 0 1 
1 0 -300 1 0 
1 0 0 1 0 
1 0 50 1 0 
2 0 0 1 0 -0 1 100
1 0 0 1 0 
1 0 0 1 0 
1 50 0 0 -1 
1 0 0 0 1 
1 0 0 0 1 
1 0 200 1 0 
1 0 0 1 0 
1 0 0 1 0 
1 50 0 0 1 
1 0 0 1 0 
1 0 0 1 0 
1 50 0 0 -1 
1 200 0 0 1 
1 0 -300 1 0 
8 0 50
1 0 0 0 1 
1 0 50 1 0 
2 0 0 1 0 -0 1 100
1 -100 0 1 0 
1 0 300 1 0 
2 100 300 1 0 -0 1 100
2 100 300 1 0 -0 1 100
1 0 0 1 0 
2 0 0 1 0 -0 1 500
1 100 100 0 1 
1 0 0 0 -1 
1 -100 400 1 0 
1 0 0 0 1 
1 50 0 0 -1 
1 200 0 0 1 
1 0 -300 1 0 
1 0 200 1 0 
1 50 0 0 1 
1 0 300 1 0 
Curves 27
1 500 -1.2246467991473532e-13 0 0 0 1 
2 0 0 0 0 0 1 1 0 -0 -0 1 0 500
2 0 0 0 0 0 1 1 0 -0 -0 1 0 500
2 0 0 100 0 0 1 1 0 -0 -0 1 0 500
1 0 500 0 0 0 1 
2 0 400 0 0 0 1 1 0 -0 -0 1 0 100
1 -100 100 0 -0 1 0 
1 -100 100 0 1 0 -0 
1 100 100 0 -0 1 0 
2 0 400 0 0 0 1 1 0 -0 -0 1 0 100
1 -100 400 0 0 0 1 
2 0 400 50 0 0 1 1 0 -0 -0 1 0 100
1 -100 100 0 0 0 1 
1 -100 100 50 -0 1 0 
1 100 100 0 0 0 1 
1 -100 100 50 1 0 -0 
1 100 100 50 -0 1 0 
1 100 400 0 0 0 1 
2 0 400 50 0 0 1 1 0 -0 -0 1 0 100
1 -100 400 50 1 0 -0 
2 0 400 50 0 0 1 1 0 -0 -0 1 0 100
2 0 0 0 0 0 1 1 0 -0 -0 1 0 500
1 100 100 0 -0 1 0 
1 -100 400 0 1 0 -0 
1 100 100 50 -0 1 0 
1 100 400 0 0 0 1 
1 -100 400 50 1 0 -0 
Polygon3D 0
PolygonOnTriangulations 0
Surfaces 16
2 0 0 0 0 0 1 1 0 -0 -0 1 0 500
2 0 0 0 0 0 1 1 0 -0 -0 1 0 500
1 0 0 0 0 0 1 1 0 -0 -0 1 0 
1 0 0 100 0 0 1 1 0 -0 -0 1 0 
2 0 400 0 0 0 1 1 0 -0 -0 1 0 100
2 0 400 0 0 0 1 1 0 -0 -0 1 0 100
1 -100 100 0 1 0 -0 0 0 1 0 -1 0 
1 0 0 0 0 0 1 1 0 -0 -0 1 0 
1 -100 100 0 -0 1 0 0 0 1 1 0 -0 
1 100 100 0 1 0 -0 0 0 1 0 -1 0 
1 -100 400 0 -0 1 0 0 0 1 1 0 -0 
1 0 400 50 0 0 1 1 0 -0 -0 1 0 
1 -100 100 50 0 0 1 1 0 -0 -0 1 0 
1 -100 100 50 0 0 1 1 0 -0 -0 1 0 
1 100 100 0 1 0 -0 0 0 1 0 -1 0 
1 -100 100 50 0 0 1 1 0 -0 -0 1 0 
Triangulations 0

TShapes 85
Ve
1e-07
500 -1.22464679914735e-13 100
0 0

0101101
*
Ve
1e-07
500 -1.22464679914735e-13 0
0 0

0101101
*
Ed
 1e-07 1 1 0
1  1 0 0 100
3  1 2CN 1 0 0 100
3  3 4C0 2 0 0 100
0

0101000
-85 0 +84 0 *
Ve
0.000159695629909871
1.40494234695978e-13 500 0
0 0

0101101
*
Ed
 1e-07 1 1 0
1  2 0 1.5707963267949 6.28318530717959
2  5 1 0 1.5707963267949 6.28318530717959
2  6 3 0 1.5707963267949 6.28318530717959
0

0101000
+82 0 -84 0 *
Ed
 1e-07 1 1 0
1  3 0 0 1.5707963267949
2  7 1 0 0 1.5707963267949
2  8 3 0 0 1.5707963267949
0

0101000
+84 0 -82 0 *
Ed
 1e-07 1 1 0
1  4 0 0 6.28318530717959
2  9 1 0 0 6.28318530717959
2  10 4 0 0 6.28318530717959
2  11 2 0 0 6.28318530717959
0

0101000
+85 0 -85 0 *
Wi

0101100
+83 0 +81 0 +80 0 -83 0 -79 0 *
Ve
1.00000006123234e-07
6.12323399573677e-15 500 50
0 0

0101101
*
Ed
 1e-07 1 1 0
1  5 0 0 50
2  12 1 0 0 50
2  13 5 0 0 50
2  14 6 0 0 50
0

0101000
+82 0 -77 0 *
Wi

0101000
i76 0 *
Fa
0  1e-07 1 0

0111000
+78 0 +75 0 *
Wi

0101100
+81 0 +80 0 *
Ve
1.00000022484892e-07
-100 400 0
0 0

0101101
*
Ed
 1e-07 1 1 0
1  6 0 1.5707963267949 3.14159265358979
2  15 3 0 1.5707963267949 3.14159265358979
2  16 5 0 1.5707963267949 3.14159265358979
0

0101000
+82 0 -72 0 *
Ve
1.00000022484892e-07
-100 100 0
0 0

0101101
*
Ed
 1e-07 1 1 0
1  7 0 0 300
2  17 3 0 0 300
2  18 7 0 0 300
2  19 8 0 0 300
0

0101000
-72 0 +70 0 *
Ve
1e-07
100 100 0
0 0

0101101
*
Ed
 1e-07 1 1 0
1  8 0 0 200
2  20 3 0 0 200
2  21 9 0 0 200
2  22 8 0 0 200
0

0101000
-68 0 +70 0 *
Ve
1.00000022484892e-07
100 400 0
0 0

0101101
*
Ed
 1e-07 1 1 0
1  9 0 0 300
2  23 3 0 0 300
2  24 10 0 0 300
0

0101000
+68 0 -66 0 *
Ed
 1e-07 1 1 0
1  10 0 0 1.5707963267949
2  25 3 0 0 1.5707963267949
2  26 6 0 0 1.5707963267949
0

0101000
+66 0 -82 0 *
Wi

0101100
-71 0 +69 0 -67 0 -65 0 -64 0 *
Fa
0  1e-07 3 0

0111000
+73 0 +63 0 *
Wi

0101100
+79 0 *
Fa
0  1e-07 4 0

0101000
+61 0 *
Ve
1.00000022484892e-07
-100 400 50
0 0

0101101
*
Ed
 1e-07 1 1 0
1  11 0 0 50
2  27 5 0 0 50
2  28 7 0 0 50
2  29 11 0 0 50
0

0101000
-59 0 +72 0 *
Ed
 1e-07 1 1 0
1  12 0 1.5707963267949 3.14159265358979
2  30 5 0 1.5707963267949 3.14159265358979
2  31 12 0 1.5707963267949 3.14159265358979
0

0101000
+77 0 -59 0 *
Wi

0101100
+58 0 +71 0 -76 0 -57 0 *
Fa
0  1e-07 5 0

0101000
+56 0 *
Ve
1.00000022484892e-07
-100 100 50
0 0

0101101
*
Ed
 1.00000014210855e-07 1 1 0
1  13 0 0 50
2  32 7 0 0 50
2  33 9 0 0 50
0

0101000
-54 0 +70 0 *
Ed
 1e-07 1 1 0
1  14 0 0 300
2  34 7 0 0 300
2  35 13 0 0 300
2  36 14 0 0 300
0

0101000
-59 0 +54 0 *
Wi

0101100
-53 0 -52 0 +58 0 +69 0 *
Fa
0  1e-07 7 0

0111000
+51 0 *
Ve
1e-07
100 100 50
0 0

0101101
*
Ed
 1e-07 1 1 0
1  15 0 0 50
2  37 9 0 0 50
2  38 10 0 0 50
2  39 15 0 0 50
0

0101000
-49 0 +68 0 *
Ed
 1e-07 1 1 0
1  16 0 0 200
2  40 9 0 0 200
2  41 13 0 0 200
2  42 14 0 0 200
0

0101000
-49 0 +54 0 *
Wi

0101100
-67 0 -48 0 +47 0 +53 0 *
Fa
0  1e-07 9 0

0111000
+46 0 *
Ve
1.00000022484892e-07
100 400 50
0 0

0101101
*
Ed
 1e-07 1 1 0
1  17 0 0 300
2  43 10 0 0 300
2  44 13 0 0 300
0

0101000
+49 0 -44 0 *
Ed
 1e-07 1 1 0
1  18 0 0 50
2  45 10 0 0 50
2  46 6 0 0 50
0

0101000
+66 0 -44 0 *
Wi

0101100
-48 0 -43 0 +42 0 +65 0 *
Fa
0  1e-07 10 0

0111000
+41 0 *
Ed
 1e-07 1 1 0
1  19 0 0 1.5707963267949
2  47 6 0 0 1.5707963267949
2  48 12 0 0 1.5707963267949
0

0101000
+44 0 -77 0 *
Wi

0101100
-39 0 +76 0 +64 0 -42 0 *
Fa
0  1e-07 6 0

0101000
+38 0 *
Ed
 1e-07 1 1 0
1  20 0 0 200
2  49 12 0 0 200
2  50 16 0 0 200
0

0101000
+59 0 -44 0 *
Wi

0101100
+57 0 +39 0 +36 0 *
Fa
0  1e-07 12 0

0101000
+35 0 *
Ed
 1e-07 1 1 0
1  21 0 3.14159265358979 6.28318530717959
2  51 13 0 3.14159265358979 6.28318530717959
2  52 16 0 3.14159265358979 6.28318530717959
0

0101000
+59 0 -44 0 *
Wi

0101100
-33 0 +43 0 +47 0 -52 0 *
Fa
0  1e-07 13 0

0111000
+32 0 *
Wi

0101100
-36 0 +33 0 *
Fa
0  1e-07 16 0

0101000
+30 0 *
Sh

0101100
+74 0 -62 0 +60 0 -55 0 +50 0 +45 0 -40 0 -37 0 -34 0 -31 0 
-29 0 *
So

0100000
+28 0 *
Co

0100000
+27 0 *
Ed
 1e-07 1 1 0
1  22 0 0 6.28318530717959
2  53 2 0 0 6.28318530717959
2  54 8 0 0 6.28318530717959
0

0101000
+84 0 -84 0 *
Wi

0101100
-79 0 +83 0 +25 0 -83 0 *
Fa
0  1e-07 2 0

0101000
+24 0 *
Wi

0101100
+25 0 *
Ve
1e-07
100 400 0
0 0

0101101
*
Ed
 1e-07 1 1 0
1  23 0 0 300
2  55 8 0 0 300
2  56 15 0 0 300
0

0101000
-21 0 +68 0 *
Ed
 1e-07 1 1 0
1  24 0 0 200
2  57 8 0 0 200
2  58 11 0 0 200
0

0101000
-21 0 +72 0 *
Wi

0101100
+69 0 -67 0 -20 0 +19 0 *
Fa
0  1e-07 8 0

0101000
+22 0 +18 0 *
Ve
1e-07
100 400 50
0 0

0101101
*
Ed
 1e-07 1 1 0
1  25 0 0 300
2  59 15 0 0 300
2  60 14 0 0 300
0

0101000
-16 0 +49 0 *
Ed
 1e-07 1 1 0
1  26 0 0 50
2  61 15 0 0 50
2  62 11 0 0 50
0

0101000
-16 0 +21 0 *
Wi

0101100
-48 0 -15 0 +14 0 +20 0 *
Fa
0  1e-07 15 0

0101000
+13 0 *
Ed
 1e-07 1 1 0
1  27 0 0 200
2  63 11 0 0 200
2  64 14 0 0 200
0

0101000
-16 0 +59 0 *
Wi

0101100
-19 0 -14 0 +11 0 +58 0 *
Fa
0  1e-07 11 0

0101000
+10 0 *
Wi

0101100
-52 0 -11 0 +15 0 +47 0 *
Fa
0  1e-07 14 0

0101000
+8 0 *
Sh

0101100
+23 0 +60 0 -17 0 +50 0 +45 0 -12 0 -9 0 -7 0 *
So

0100000
+6 0 *
Co

0100000
+5 0 *
Co

0100000
+4 0 *
Co

0100000
+26 0 +3 0 *
Co

1100000
+2 0 *

+1 0 